<svg width="150" height="151" viewBox="0 0 150 151" fill="none" xmlns="http://www.w3.org/2000/svg">
<circle cx="74.8873" cy="75.6455" r="74.731" fill="url(#paint0_linear_362_24)"/>
<path d="M90.6887 39.6671C90.6969 39.7109 90.7078 39.7301 90.7024 39.7439C90.4911 40.2785 90.4788 40.8406 90.4802 41.4013C90.4884 43.7702 90.4802 46.139 90.4802 48.5093C90.4745 48.6964 90.4804 48.8837 90.4979 49.07C90.5531 49.5666 90.7728 50.0302 91.1216 50.386C91.4705 50.7419 91.9282 50.9693 92.4211 51.0318C92.6395 51.0594 92.8595 51.0713 93.0795 51.0674C95.3684 51.0674 97.6565 51.0674 99.9437 51.0674C100.455 51.0674 100.959 51.0509 101.408 50.8316C101.544 50.8755 101.532 50.9687 101.533 51.0496C101.533 51.2031 101.533 51.3567 101.533 51.5102V109.758C101.533 109.946 101.541 110.134 101.533 110.32C101.493 110.997 101.063 111.417 100.395 111.447C100.259 111.447 100.122 111.447 99.9859 111.447H50.2629C50.0925 111.447 49.9222 111.447 49.7545 111.44C49.508 111.423 49.2747 111.322 49.0936 111.153C48.9125 110.984 48.7945 110.758 48.7595 110.512C48.7455 110.409 48.7378 110.306 48.7363 110.202C48.7363 110.065 48.7363 109.928 48.7363 109.791V41.3204C48.7363 41.1161 48.7363 40.9091 48.7459 40.7076C48.7544 40.4225 48.873 40.1519 49.0766 39.9533C49.2802 39.7547 49.5527 39.6436 49.8363 39.6438C49.9726 39.6438 50.1089 39.6438 50.2452 39.6438H90.1544C90.3328 39.6286 90.5124 39.6365 90.6887 39.6671ZM75.1203 88.3419H91.8964C92.0818 88.3419 92.2699 88.3487 92.4552 88.3309C92.7192 88.3074 92.9654 88.1869 93.1466 87.9924C93.3279 87.798 93.4316 87.5432 93.438 87.2767C93.4547 87.0011 93.3674 86.7293 93.1935 86.5155C93.0197 86.3018 92.7721 86.1619 92.5002 86.1238C92.2986 86.0986 92.0953 86.0899 91.8923 86.0977H58.3906C58.2543 86.0977 58.118 86.0895 57.9817 86.0977C57.847 86.1061 57.7135 86.129 57.5837 86.1663C57.3395 86.244 57.1298 86.4048 56.9907 86.621C56.8515 86.8373 56.7915 87.0955 56.821 87.3514C56.8505 87.6073 56.9677 87.8449 57.1524 88.0233C57.337 88.2018 57.5777 88.3101 57.8331 88.3295C58.0185 88.3446 58.2066 88.3378 58.392 88.3378L75.1203 88.3419ZM75.1203 76.6674H91.895C92.064 76.6674 92.2344 76.6756 92.4034 76.6674C92.6808 76.6484 92.9411 76.5258 93.1332 76.3236C93.3252 76.1214 93.4351 75.8543 93.4413 75.5747C93.4474 75.2951 93.3494 75.0234 93.1664 74.8128C92.9834 74.6023 92.7288 74.4682 92.4525 74.4369C92.3006 74.4248 92.1481 74.4216 91.9959 74.4273H58.2393C58.103 74.4231 57.9665 74.4259 57.8304 74.4356C57.5489 74.4609 57.2875 74.593 57.0992 74.805C56.9109 75.017 56.8098 75.293 56.8164 75.5772C56.823 75.8614 56.9368 76.1324 57.1347 76.3354C57.3326 76.5383 57.5998 76.658 57.8822 76.6701C58.0498 76.6811 58.2202 76.6701 58.3892 76.6701L75.1203 76.6674ZM75.1203 100.027H91.8446C92.0478 100.033 92.2511 100.028 92.4539 100.012C92.726 99.9849 92.9783 99.8569 93.1619 99.6529C93.3454 99.449 93.447 99.1837 93.447 98.9087C93.447 98.6336 93.3454 98.3684 93.1619 98.1644C92.9783 97.9605 92.726 97.8324 92.4539 97.8051C92.2344 97.7914 92.015 97.7887 91.7942 97.7887H61.2952C60.2784 97.7887 59.2616 97.7887 58.2448 97.7887C58.0757 97.784 57.9066 97.7932 57.7391 97.8161C57.4751 97.8563 57.2347 97.9917 57.0627 98.197C56.8906 98.4023 56.7987 98.6636 56.804 98.932C56.8094 99.2005 56.9116 99.4578 57.0917 99.6561C57.2717 99.8543 57.5173 99.9799 57.7827 100.01C57.9853 100.028 58.1887 100.034 58.392 100.029L75.1203 100.027ZM73.8009 62.7487H58.3988C58.2284 62.7487 58.0594 62.7419 57.8904 62.7487C57.7728 62.7555 57.6568 62.7786 57.5455 62.8173C57.3127 62.9031 57.1153 63.0652 56.9852 63.2776C56.8552 63.49 56.8 63.7402 56.8286 63.988C56.8587 64.2444 56.9755 64.4826 57.1593 64.6628C57.3432 64.8429 57.583 64.9542 57.8386 64.9778C58.0245 64.9924 58.2111 64.9961 58.3974 64.9888H89.2017C89.3708 64.9959 89.5402 64.9913 89.7087 64.9751C89.9897 64.9441 90.2484 64.8068 90.4323 64.5909C90.6162 64.3751 90.7115 64.0969 90.6988 63.8129C90.6861 63.5289 90.5664 63.2605 90.3641 63.0621C90.1617 62.8636 89.8918 62.7501 89.6092 62.7446C89.4402 62.7446 89.2712 62.7446 89.1008 62.7446L73.8009 62.7487ZM71.0463 51.0715H58.3933C58.2066 51.0715 58.0199 51.0715 57.8345 51.0715C57.6466 51.0766 57.4646 51.1387 57.3125 51.2497C57.1332 51.3666 56.992 51.5339 56.9065 51.7309C56.8209 51.9278 56.7948 52.1457 56.8313 52.3574C56.8622 52.5787 56.9612 52.7848 57.1145 52.9466C57.2678 53.1084 57.4676 53.2178 57.6859 53.2594C57.9193 53.2972 58.1557 53.3123 58.392 53.3047C66.8272 53.3047 75.2625 53.3047 83.6978 53.3047C83.8164 53.3047 83.935 53.3047 84.0536 53.3047C84.1718 53.3008 84.2895 53.2866 84.4052 53.2622C84.6689 53.2108 84.9049 53.0642 85.0686 52.8501C85.2324 52.6359 85.3127 52.369 85.2944 52.0995C85.2762 51.8299 85.1606 51.5764 84.9695 51.3866C84.7784 51.1967 84.5248 51.0837 84.2567 51.0688C84.0713 51.0523 83.8845 51.0592 83.6978 51.0592L71.0463 51.0715Z" fill="white"/>
<path d="M91.6012 44.7915V41.1134C91.6012 40.9763 91.5943 40.8392 91.6012 40.7021C91.6167 40.4178 91.7394 40.1501 91.9443 39.9535C92.1491 39.7569 92.4207 39.6462 92.7038 39.6438C92.8565 39.6356 93.0092 39.6438 93.1618 39.6438C93.4358 39.6474 93.6978 39.7569 93.8938 39.9495C93.9933 40.0414 94.0887 40.1387 94.1841 40.2346C96.4349 42.4994 98.6866 44.7631 100.939 47.026C101.024 47.111 101.105 47.196 101.19 47.2796C101.407 47.4979 101.531 47.7932 101.535 48.1022C101.535 48.3407 101.547 48.5792 101.535 48.8178C101.495 49.4635 101.08 49.883 100.435 49.9378C100.299 49.9488 100.162 49.9378 100.026 49.9378H93.1155C92.9792 49.9378 92.8429 49.9378 92.7066 49.9378C92.0414 49.883 91.6243 49.447 91.6012 48.7725C91.5889 48.4326 91.6012 48.0871 91.6012 47.7499V44.7915Z" fill="white"/>
<defs>
<linearGradient id="paint0_linear_362_24" x1="74.8873" y1="-6.97858" x2="74.8873" y2="150.377" gradientUnits="userSpaceOnUse">
<stop stop-color="#9497AB"/>
<stop offset="1" stop-color="#373945"/>
</linearGradient>
</defs>
</svg>
