<svg width="151" height="150" viewBox="0 0 151 150" fill="none" xmlns="http://www.w3.org/2000/svg">
<circle cx="75.565" cy="75.0104" r="74.731" fill="url(#paint0_linear_362_22)"/>
<g clip-path="url(#clip0_362_22)">
<path d="M103.593 103.288L101.92 96.661C101.756 96.0105 101.377 95.4329 100.843 95.0206C100.309 94.6084 99.6512 94.3852 98.974 94.3868H98.6237L81.6292 84.105L95.9757 75.4257C96.4191 75.1575 96.7854 74.7811 97.0395 74.3326C97.2937 73.884 97.4272 73.3784 97.4272 72.8641C97.4272 72.3498 97.2937 71.8442 97.0395 71.3956C96.7854 70.9471 96.4191 70.5707 95.9757 70.3025L81.6292 61.6243L98.6279 51.3414H101.622C101.879 51.3414 102.125 51.2404 102.306 51.0608C102.488 50.8811 102.59 50.6375 102.59 50.3834V46.2963C102.59 46.0422 102.488 45.7985 102.306 45.6188C102.125 45.4392 101.879 45.3383 101.622 45.3383H50.0022C49.7455 45.3383 49.4993 45.4392 49.3178 45.6188C49.1363 45.7985 49.0343 46.0422 49.0343 46.2963V50.3834C49.0343 50.6375 49.1363 50.8811 49.3178 51.0608C49.4993 51.2404 49.7455 51.3414 50.0022 51.3414H52.9973L69.997 61.6243L55.6473 70.3035C55.2042 70.5719 54.8382 70.9484 54.5842 71.3969C54.3303 71.8454 54.1969 72.351 54.1969 72.8651C54.1969 73.3793 54.3303 73.8849 54.5842 74.3334C54.8382 74.7819 55.2042 75.1584 55.6473 75.4267L69.9959 84.105L52.9973 94.3837H52.648C51.9709 94.3824 51.3128 94.6057 50.7789 95.018C50.245 95.4302 49.866 96.0075 49.7023 96.6579L48.0328 103.288C47.9971 103.429 47.9945 103.576 48.025 103.719C48.0554 103.861 48.1183 103.995 48.2088 104.109C48.2992 104.224 48.4149 104.317 48.547 104.381C48.6791 104.445 48.8242 104.478 48.9712 104.478H102.655C102.802 104.478 102.947 104.445 103.079 104.381C103.211 104.317 103.327 104.224 103.417 104.109C103.508 103.995 103.571 103.861 103.601 103.719C103.632 103.576 103.629 103.429 103.593 103.288ZM72.6512 61.6243C72.65 61.0046 72.8346 60.3986 73.1816 59.8829C73.5286 59.3672 74.0224 58.965 74.6005 58.7273C75.1786 58.4896 75.815 58.4271 76.429 58.5477C77.0431 58.6683 77.6071 58.9665 78.0498 59.4047C78.4924 59.8428 78.7937 60.4011 78.9156 61.0089C79.0374 61.6167 78.9742 62.2465 78.7341 62.8188C78.494 63.391 78.0876 63.8798 77.5666 64.2232C77.0456 64.5667 76.4333 64.7494 75.8073 64.7482C74.971 64.746 74.1695 64.4161 73.5781 63.8308C72.9867 63.2454 72.6535 62.4521 72.6512 61.6243ZM77.7262 56.9488C76.4994 56.4559 75.1268 56.4559 73.9 56.9488L64.6306 51.3414H86.9956L77.7262 56.9488ZM73.9 66.2997C75.1268 66.7926 76.4994 66.7926 77.7262 66.2997L88.58 72.8599L77.7262 79.4295C76.4994 78.9366 75.1268 78.9366 73.9 79.4295L63.0473 72.8641L73.9 66.2997ZM72.6512 84.106C72.65 83.4864 72.8346 82.8804 73.1816 82.3646C73.5286 81.8489 74.0224 81.4468 74.6005 81.2091C75.1786 80.9714 75.815 80.9089 76.429 81.0295C77.0431 81.15 77.6071 81.4483 78.0498 81.8864C78.4924 82.3246 78.7937 82.8829 78.9156 83.4906C79.0374 84.0984 78.9742 84.7283 78.7341 85.3005C78.494 85.8727 78.0876 86.3615 77.5666 86.705C77.0456 87.0485 76.4333 87.2312 75.8073 87.2299C74.9708 87.2277 74.1692 86.8978 73.5777 86.3122C72.9863 85.7266 72.6532 84.933 72.6512 84.105V84.106ZM73.9 88.7815C75.1268 89.2744 76.4994 89.2744 77.7262 88.7815L86.9956 94.3837H64.6306L73.9 88.7815ZM90.7072 94.3837H94.9153ZM50.9711 49.4254V47.2543H100.654V49.4254M50.2126 102.562L51.5802 97.1254C51.6396 96.8904 51.7766 96.6818 51.9695 96.5328C52.1624 96.3837 52.4001 96.3028 52.6449 96.3028H98.9782C99.2229 96.3026 99.4605 96.3836 99.6533 96.5327C99.846 96.6817 99.9828 96.8904 100.042 97.1254L101.415 102.562H50.2126Z" fill="white"/>
<path d="M77.4268 61.6242C77.427 61.3082 77.3326 60.9993 77.1554 60.7365C76.9782 60.4737 76.7262 60.2688 76.4313 60.1477C76.1365 60.0266 75.812 59.9949 75.4988 60.0564C75.1857 60.1179 74.8981 60.27 74.6723 60.4933C74.4465 60.7167 74.2927 61.0013 74.2303 61.3112C74.168 61.6211 74.1998 61.9423 74.322 62.2342C74.4441 62.5262 74.6509 62.7757 74.9163 62.9513C75.1817 63.1268 75.4938 63.2205 75.813 63.2205C76.2408 63.2203 76.6509 63.052 76.9535 62.7527C77.256 62.4535 77.4263 62.0476 77.4268 61.6242Z" fill="white"/>
<path d="M77.4268 84.105C77.427 83.789 77.3326 83.4801 77.1554 83.2173C76.9782 82.9544 76.7262 82.7495 76.4313 82.6285C76.1365 82.5074 75.812 82.4756 75.4988 82.5372C75.1857 82.5987 74.8981 82.7507 74.6723 82.9741C74.4465 83.1974 74.2927 83.4821 74.2303 83.7919C74.168 84.1018 74.1998 84.4231 74.322 84.715C74.4441 85.0069 74.6509 85.2565 74.9163 85.432C75.1817 85.6076 75.4938 85.7013 75.813 85.7013C76.2408 85.701 76.6509 85.5328 76.9535 85.2335C77.256 84.9342 77.4263 84.5284 77.4268 84.105Z" fill="white"/>
</g>
<defs>
<linearGradient id="paint0_linear_362_22" x1="75.565" y1="-7.61365" x2="75.565" y2="149.741" gradientUnits="userSpaceOnUse">
<stop stop-color="#9497AB"/>
<stop offset="1" stop-color="#373945"/>
</linearGradient>
<clipPath id="clip0_362_22">
<rect width="55.6196" height="59.1398" fill="white" transform="translate(48.0039 45.3383)"/>
</clipPath>
</defs>
</svg>
