<svg width="150" height="151" viewBox="0 0 150 151" fill="none" xmlns="http://www.w3.org/2000/svg">
<circle cx="75.2701" cy="75.442" r="74.731" fill="url(#paint0_linear_362_26)"/>
<g clip-path="url(#clip0_362_26)">
<path d="M48.1953 71.7147C48.3556 71.7147 48.5159 71.7363 48.6762 71.7363H110.827C110.827 72.4627 110.868 73.148 110.827 73.8274C110.395 79.9108 108.427 85.446 104.793 90.3409C100.07 96.7004 93.834 100.738 86.0852 102.453C82.6122 103.225 79.0298 103.371 75.5058 102.884C67.5087 101.783 60.8585 98.1552 55.6118 92.0111C51.996 87.7947 49.5973 82.6701 48.6742 77.1892C48.4631 75.989 48.3888 74.7633 48.252 73.5474C48.2364 73.4103 48.2149 73.2752 48.1953 73.1382V71.7147Z" fill="white"/>
<path d="M48.1953 106.696C48.3243 106.696 48.4533 106.696 48.5863 106.696H110.874V112.008H48.5159C48.4084 112.008 48.3028 111.994 48.1953 111.986V106.696Z" fill="white"/>
<path d="M88.7422 69.8801C89.7098 68.8639 90.654 67.8242 91.647 66.8335C97.2536 61.1994 103.881 56.6879 111.175 53.5408C112.299 53.0552 113.459 53.5408 113.887 54.6588C114.188 55.442 113.924 56.1488 113.162 56.513C112.127 57.0064 111.074 57.4567 110.048 57.9658C104.006 60.9419 98.5062 64.9131 93.7777 69.7136C93.6972 69.8034 93.5976 69.874 93.4864 69.9204C93.3751 69.9668 93.255 69.9878 93.1346 69.9819C91.7956 69.9682 90.4565 69.9819 89.1156 69.9819H88.8028L88.7422 69.8801Z" fill="white"/>
<path d="M72.1387 65.878C71.4188 65.7485 70.7558 65.4014 70.2386 64.8834C68.8585 63.5578 68.534 61.9347 69.0012 60.1294C69.4332 58.4632 70.5064 57.2179 71.8357 56.2135C73.5794 54.9056 74.3769 53.1727 74.4454 51.0444C74.461 50.6176 74.4981 50.1888 74.5275 49.715C74.6483 49.7544 74.7671 49.8002 74.8832 49.852C76.7618 50.831 77.7998 52.3974 77.9659 54.4709C78.1614 56.8694 77.1 58.7451 75.2918 60.2332C74.7053 60.709 74.1013 61.1456 73.4914 61.5822C72.5824 62.2303 72.1661 63.1271 72.1406 64.2216C72.1289 64.7639 72.1387 65.2985 72.1387 65.878Z" fill="white"/>
<path d="M84.6944 49.7306C85.2784 49.9249 85.8123 50.2458 86.2583 50.6704C88.3401 52.5638 88.7545 55.628 87.2787 58.1401C86.6805 59.1362 85.8759 59.9922 84.9192 60.6502C84.4833 60.9615 84.0611 61.2905 83.6271 61.6057C83.2077 61.8989 82.867 62.2912 82.6351 62.7478C82.4033 63.2045 82.2874 63.7113 82.2978 64.2235C82.2881 64.7659 82.2978 65.3102 82.2978 65.876C81.5813 65.7516 80.9201 65.4099 80.4036 64.897C79.0509 63.6048 78.7069 62.0169 79.133 60.239C79.524 58.6198 80.5561 57.4333 81.7798 56.3838C81.9909 56.2036 82.2053 56.0261 82.423 55.8512C83.7698 54.7724 84.4129 53.3372 84.5459 51.6435C84.5908 51.0111 84.6436 50.3846 84.6944 49.7306Z" fill="white"/>
<path d="M53.7052 92.8314C49.9379 88.4448 47.4371 83.1116 46.4725 77.4065C46.2536 76.1554 46.1773 74.8807 46.0346 73.6159C46.019 73.4749 45.9955 73.332 45.976 73.191V71.7147V69.5864H60.1092C60.1092 66.3231 60.0994 63.067 60.0798 59.8181C60.0798 58.9938 59.5872 57.6114 59.036 57.445C56.2641 56.605 53.4159 55.7376 50.5541 55.5712C48.5837 55.4557 46.5526 56.8439 44.5372 56.8811C41.8435 56.9359 40.9639 58.003 40.9991 60.5562C41.0831 66.528 41.0245 72.4999 41.0225 78.4775V102.543H60.1346V98.6956C57.7489 97.0255 55.588 95.0546 53.7052 92.8314Z" fill="white"/>
<path d="M49.6394 41C54.3779 45.8009 55.1891 50.7899 52.2843 54.1184C51.9461 52.3249 51.606 50.5236 51.2658 48.7242L50.3705 48.6576C49.9033 50.5941 49.4342 52.5305 48.8477 54.9623C43.9568 49.6777 51.6822 45.6208 49.6394 41Z" fill="white"/>
</g>
<defs>
<linearGradient id="paint0_linear_362_26" x1="75.2701" y1="-7.18207" x2="75.2701" y2="150.173" gradientUnits="userSpaceOnUse">
<stop stop-color="#9497AB"/>
<stop offset="1" stop-color="#373945"/>
</linearGradient>
<clipPath id="clip0_362_26">
<rect width="73" height="71" fill="white" transform="translate(41 41)"/>
</clipPath>
</defs>
</svg>
