<svg width="151" height="151" viewBox="0 0 151 151" fill="none" xmlns="http://www.w3.org/2000/svg">
<circle cx="75.4342" cy="75.442" r="74.731" fill="url(#paint0_linear_362_23)"/>
<g clip-path="url(#clip0_362_23)">
<path d="M94.5483 100.342H55.3887V47.4714C56.4079 47.4084 57.314 47.0635 58.0375 46.3252C58.7611 45.5869 59.1049 44.7183 59.1486 43.653C60.4266 43.653 61.6552 43.6159 62.8806 43.6688C63.5145 43.6968 63.7956 43.5047 64.0331 42.8889C65.7758 38.3739 70.1764 35.4017 75.006 35.4129C77.3824 35.4143 79.7024 36.1391 81.6596 37.4913C83.6168 38.8436 85.119 40.7598 85.9677 42.9867C86.1671 43.5126 86.4034 43.6901 86.9623 43.6688C88.2078 43.6193 89.4578 43.653 90.7492 43.653C90.8388 44.6947 91.1681 45.606 91.8994 46.3376C92.6308 47.0691 93.5403 47.3995 94.5483 47.4804V100.342ZM64.2996 61.7447V65.9541H72.8779V90.6205H77.04V65.9395H85.5881V61.693H77.0075V52.1775H72.8387V61.7447H64.2996Z" fill="white"/>
<path d="M102.791 104.049V116.377H47.1719V104.049H102.791Z" fill="white"/>
<path d="M94.5483 99.929H55.3887V47.0587C56.4079 46.9958 57.314 46.6508 58.0375 45.9125C58.7611 45.1742 59.1049 44.3056 59.1486 43.2403C60.4266 43.2403 61.6552 43.2033 62.8806 43.2561C63.5145 43.2842 63.7956 43.092 64.0331 42.4762C65.7758 37.9612 70.1764 34.989 75.006 35.0002C77.3824 35.0016 79.7024 35.7264 81.6596 37.0786C83.6168 38.4309 85.119 40.3471 85.9677 42.574C86.1671 43.0999 86.4034 43.2774 86.9623 43.2561C88.2078 43.2066 89.4578 43.2403 90.7492 43.2403C90.8388 44.282 91.1681 45.1933 91.8994 45.9249C92.6308 46.6564 93.5403 46.9868 94.5483 47.0677V99.929ZM64.2996 61.332V65.5414H72.8779V90.2079H77.04V65.5268H85.5881V61.2803H77.0075V51.7648H72.8387V61.332H64.2996Z" fill="white"/>
<path d="M102.791 103.636V115.964H47.1719V103.636H102.791Z" fill="white"/>
</g>
<defs>
<linearGradient id="paint0_linear_362_23" x1="75.4342" y1="-7.18207" x2="75.4342" y2="150.173" gradientUnits="userSpaceOnUse">
<stop stop-color="#9497AB"/>
<stop offset="1" stop-color="#373945"/>
</linearGradient>
<clipPath id="clip0_362_23">
<rect width="55.6196" height="80.9652" fill="white" transform="translate(47.1719 35.4127)"/>
</clipPath>
</defs>
</svg>
