<svg width="150" height="150" viewBox="0 0 150 150" fill="none" xmlns="http://www.w3.org/2000/svg">
<circle cx="75.1383" cy="75.0104" r="74.731" fill="url(#paint0_linear_362_25)"/>
<g clip-path="url(#clip0_362_25)">
<path d="M124.819 86.7962C125.302 86.7962 125.742 86.7962 126.183 86.7962C126.787 86.803 127.061 87.1017 127.073 87.7277C127.109 89.4569 127.095 89.4855 125.406 89.4888C124.913 89.4888 124.418 89.4594 123.929 89.5023C123.356 89.5528 123.212 89.3264 123.233 88.7644C123.322 86.2661 122.542 84.0523 120.825 82.2651C118.277 79.6112 115.158 78.7386 111.673 79.8056C108.261 80.8498 106.158 83.2858 105.513 86.8392C105.285 88.1013 105.477 89.4375 105.477 90.7939H53.979C54.0388 89.9306 54.1243 89.122 54.1451 88.3117C54.1609 87.6234 53.886 87.3642 53.2116 87.3625C47.9519 87.3524 42.6935 87.3471 37.4365 87.3465C36.6609 87.3465 36.4242 87.5914 36.4225 88.3622C36.4225 88.8771 36.4657 89.3912 36.4948 90.019C35.7415 89.9197 35.0464 89.8111 34.3471 89.7396C33.3705 89.6395 32.3913 89.5065 31.4122 89.4939C28.8618 89.4611 26.3105 89.4872 23.7601 89.488C22.8466 89.488 22.6996 89.3374 22.6904 88.4312C22.6755 86.824 22.7062 86.792 24.2866 86.7946H25.5099C24.4511 83.6939 25.0341 80.7614 26.1519 77.9595C28.1542 72.9428 30.2985 67.9834 32.427 63.0189C32.971 61.75 34.1204 61.2106 35.4168 61.1526C36.4325 61.1071 37.2098 60.8513 37.9847 60.0957C39.0826 59.0187 40.5974 58.7275 42.0989 58.725C53.466 58.7082 64.8334 58.7082 76.2011 58.725C77.6129 58.725 78.9658 59.0616 80.1235 59.9207C80.5637 60.2472 81.0038 60.6654 81.2488 61.1442C81.4938 61.6229 81.8194 61.7651 82.2811 61.835C85.5881 62.3323 88.4126 63.7417 90.5909 66.3712C92.5741 68.7667 94.5773 71.1455 96.5488 73.5512C96.881 73.9525 97.2041 74.1191 97.7256 74.1402C103.871 74.3758 110.017 74.6089 116.162 74.9151C119.132 75.0624 122.096 75.3485 125.06 75.6009C127.317 75.7928 127.975 76.6864 127.386 78.9372C127.009 80.3752 126.419 81.7552 125.93 83.1638C125.574 84.1869 125.225 85.2127 124.883 86.2409C124.836 86.3814 124.845 86.543 124.819 86.7962ZM38.0885 69.4357H38.9339C42.0898 69.4416 45.2456 69.4534 48.4014 69.4525C55.496 69.4525 62.5906 69.4435 69.6851 69.4256C70.2914 69.4256 70.4982 69.5678 70.46 70.2191C70.3944 71.3256 70.445 72.4396 70.4342 73.5512C70.4342 73.8877 70.489 74.1124 70.9051 74.1057C72.0014 74.0863 73.0984 74.1057 74.1947 74.0931C74.7112 74.0888 74.972 73.7985 74.9869 73.2827C74.9953 72.9882 74.9869 72.6937 74.9869 72.3984C74.9869 69.8135 74.9944 67.2286 74.9869 64.6437C74.9869 63.8023 74.7868 63.6129 73.9463 63.607C73.2977 63.607 72.6483 63.607 71.9997 63.607C60.0263 63.6026 48.0529 63.5953 36.0795 63.5852C35.3495 63.5852 34.8338 63.7913 34.5257 64.4939C33.2434 67.3885 31.9387 70.2738 30.6531 73.1666C30.3542 73.8398 30.5178 74.0922 31.2478 74.0922C33.3514 74.1031 35.455 74.0989 37.5595 74.0922C37.7363 74.0809 37.9123 74.0595 38.0868 74.0283L38.0885 69.4357ZM88.8062 74.0998C88.8468 73.9018 88.8745 73.7014 88.8893 73.4998C88.8984 71.2111 88.9159 68.9216 88.8893 66.6337C88.8893 66.372 88.6725 66.0396 88.4574 65.8655C87.3778 64.9895 86.1454 64.3315 84.7742 64.1691C82.5369 63.9032 80.2838 63.7678 78.034 63.618C77.1603 63.5599 76.9818 63.7863 76.9818 64.6891C76.9818 67.4541 76.9818 70.2188 76.9818 72.9832C76.9818 73.9534 77.1379 74.1048 78.1287 74.1048L87.9284 74.0998H88.8062ZM85.4436 76.3212C85.4436 76.2471 85.4436 76.1739 85.4436 76.0999C79.8793 76.2429 74.3101 76.3599 68.745 76.5374C63.1588 76.729 57.5866 77.2222 52.0523 78.015C46.2389 78.8329 40.4911 79.9503 34.9285 81.8856C33.5166 82.377 32.1513 83.014 30.7819 83.6249C30.6158 83.6997 30.5551 84.0245 30.4455 84.2341C30.639 84.2509 30.8715 84.3468 31.0202 84.2728C35.1726 82.2037 39.6149 81.0753 44.1053 80.1085C49.7484 78.9036 55.4674 78.0981 61.2208 77.6978C66.3266 77.3334 71.4466 77.0154 76.5624 76.9893C86.0905 76.9422 95.6212 77.0558 105.149 77.2325C110.602 77.3334 116.051 77.6776 121.502 77.9418C122.727 78.0015 123.947 78.1942 125.172 78.2952C125.361 78.3103 125.564 78.1353 125.76 78.0487C125.594 77.909 125.443 77.7213 125.25 77.6439C125.029 77.5539 124.77 77.5488 124.525 77.5312C121.514 77.3065 118.507 77.0053 115.492 76.8816C109.683 76.6415 103.871 76.4603 98.0578 76.338C93.8589 76.2539 89.6492 76.3212 85.4436 76.3212ZM79.7797 61.4597L79.9582 61.2544C79.5363 60.821 79.1867 60.2177 78.676 59.9922C77.8787 59.6397 76.9735 59.3872 76.1106 59.3746C70.8096 59.3191 65.5078 59.3443 60.2068 59.3494C59.9842 59.3494 59.7617 59.4158 59.505 59.4562C59.5731 59.8197 59.6288 60.0839 59.6711 60.3507C59.7716 60.9776 60.0698 61.2519 60.7508 61.2207C61.8877 61.1694 63.0296 61.235 64.1699 61.2535C68.4402 61.3214 72.7111 61.3893 76.9826 61.4572C77.9177 61.4715 78.8487 61.4597 79.7797 61.4597ZM58.8298 59.4318C58.656 59.4006 58.4804 59.3795 58.3042 59.3687C52.8063 59.3614 47.3085 59.3583 41.8107 59.3595C40.8523 59.3595 39.9438 59.6052 39.203 60.2665C38.9929 60.455 38.8484 60.7192 38.6059 61.0365C38.953 61.055 39.1299 61.0726 39.3068 61.0735C45.3417 61.1133 51.3765 61.1517 57.4114 61.1888C58.5873 61.1955 58.6737 61.1172 58.8315 59.9401C58.8411 59.7708 58.8405 59.6011 58.8298 59.4318ZM41.1231 71.626L41.0683 71.5073C41.0021 71.4946 40.9342 71.4946 40.8681 71.5073C40.6372 71.6133 40.4122 71.7337 40.1846 71.8489C40.3997 71.9516 40.6107 72.1275 40.8316 72.1434C41.3216 72.1771 41.7758 72.162 42.2044 72.5322C42.3705 72.6761 42.8139 72.5246 43.1179 72.459C43.4069 72.3984 43.681 72.1914 43.9633 72.1889C46.8927 72.1625 49.8221 72.1572 52.7515 72.1729C53.053 72.1729 53.347 72.4161 53.6568 72.4657C54.0046 72.5234 54.3591 72.5274 54.7081 72.4775C55.0403 72.4287 55.3559 72.1897 55.6806 72.1864C58.5425 72.1566 61.4049 72.1513 64.2679 72.1704C64.6117 72.1704 64.948 72.4102 65.2985 72.4893C65.5858 72.5549 66.0119 72.6853 66.163 72.5473C66.6015 72.1468 67.084 72.1771 67.5931 72.1409C67.7659 72.1291 67.9253 71.9415 68.0914 71.8338C67.9253 71.7278 67.7592 71.5435 67.5848 71.53C67.0749 71.4922 66.5974 71.4922 66.1497 71.1245C65.9837 70.9865 65.551 71.143 65.2503 71.2086C64.9638 71.2742 64.6914 71.4838 64.4115 71.4854C61.4827 71.5011 58.5533 71.4961 55.6233 71.4703C55.3186 71.4703 54.9864 71.3298 54.7189 71.1665C54.3186 70.9225 53.9923 70.9141 53.6136 71.2061C53.4118 71.3661 53.1674 71.4614 52.9118 71.4795C49.9381 71.4964 46.9639 71.4941 43.9891 71.4728C43.6859 71.4728 43.3911 71.2338 43.0805 71.1808C42.7552 71.1169 42.4209 71.1169 42.0956 71.1808C41.7609 71.265 41.4494 71.4737 41.1231 71.626ZM89.6741 74.0485H95.2915C93.3814 71.6411 91.7752 69.1858 89.8186 67.0174L89.6741 67.1083V74.0485Z" fill="white"/>
<path d="M121.637 88.3828C121.71 92.5252 118.468 95.9558 114.412 96.0222C110.26 96.0921 106.866 92.8315 106.801 88.7017C106.735 84.4617 109.957 81.0211 114.065 80.9487C118.224 80.8772 121.563 84.1546 121.637 88.3828ZM119.011 88.4914C119.022 85.7803 116.913 83.6363 114.208 83.611C111.621 83.5849 109.441 85.7929 109.421 88.4602C109.4 91.1024 111.548 93.3027 114.178 93.3355C114.811 93.3457 115.44 93.2278 116.027 92.9886C116.615 92.7495 117.149 92.3939 117.6 91.9427C118.05 91.4916 118.406 90.9539 118.649 90.3613C118.891 89.7686 119.015 89.1329 119.011 88.4914Z" fill="white"/>
<path d="M39.1698 88.3474C40.3632 88.3365 40.3632 88.3365 40.6331 89.554C40.8834 90.658 41.5055 91.6391 42.3925 92.3286C43.2795 93.0182 44.3759 93.373 45.4931 93.3321C47.8725 93.237 49.7876 91.4986 50.0566 89.0744C50.1297 88.4122 50.378 88.2852 50.9303 88.3365C51.2625 88.3676 51.6005 88.3365 51.9352 88.3432C52.8105 88.3499 52.8263 88.371 52.7242 89.2806C52.2931 93.11 49.2062 95.97 45.4408 96.0272C43.6219 96.0534 41.8562 95.4056 40.4755 94.2058C39.0947 93.0059 38.1939 91.3365 37.9423 89.5111C37.9332 89.4438 37.9307 89.3757 37.9249 89.3083C37.8485 88.3542 37.8485 88.3533 38.767 88.3457C38.9016 88.3457 39.0361 88.3474 39.1698 88.3474Z" fill="white"/>
<path d="M43.6094 88.4033H47.0102C47.0708 89.429 46.3458 90.2242 45.3692 90.2621C44.3925 90.2999 43.6451 89.5283 43.6094 88.4033Z" fill="white"/>
<path d="M41.948 88.3787C42.3225 90.325 43.2709 91.7201 45.3529 91.6948C47.4084 91.6696 48.3784 90.3317 48.5918 88.2878C49.042 88.8348 48.8294 89.8226 48.1874 90.675C47.6985 91.3333 47.0026 91.8028 46.2146 92.006C45.4267 92.2092 44.5939 92.1338 43.8539 91.7924C42.5011 91.1824 41.6282 89.7225 41.948 88.3787Z" fill="white"/>
<path d="M54.2902 68.9454C49.0554 68.9454 43.8209 68.9426 38.5866 68.937C38.2785 68.937 37.9712 68.8158 37.6631 68.7519C37.7594 68.3026 37.7029 67.6647 37.9778 67.4367C39.1721 66.4472 40.2251 65.1379 41.9957 65.1791C42.308 65.1867 42.6203 65.1396 42.9333 65.1396C50.4717 65.1396 58.0108 65.1194 65.5491 65.1564C66.4693 65.1615 67.4094 65.3811 68.2972 65.6487C68.7465 65.7833 69.0986 66.2486 69.4956 66.5641C69.7007 66.7324 69.9167 66.8797 70.1102 67.0555C70.3535 67.2768 70.6566 67.4763 70.7978 67.7573C71.213 68.5701 70.9506 68.9488 70.0612 68.9488C64.8014 68.9488 59.5444 68.9488 54.2902 68.9488V68.9454Z" fill="white"/>
<path d="M117.81 88.5413C117.806 90.4766 116.167 92.1241 114.248 92.1157C112.232 92.1064 110.669 90.5321 110.672 88.511C110.672 86.4621 112.29 84.8238 114.28 84.8532C116.241 84.8818 117.815 86.5269 117.81 88.5413ZM117.395 88.5185C117.395 86.6808 116.029 85.2647 114.239 85.2588C113.816 85.2519 113.396 85.3303 113.004 85.4893C112.612 85.6484 112.254 85.8851 111.953 86.1854C111.652 86.4858 111.412 86.8439 111.249 87.2389C111.086 87.6339 111.002 88.0579 111.002 88.4861C111.002 88.9144 111.086 89.3384 111.249 89.7334C111.412 90.1284 111.652 90.4865 111.953 90.7869C112.254 91.0872 112.612 91.3239 113.004 91.4829C113.396 91.642 113.816 91.7204 114.239 91.7135C114.654 91.7168 115.066 91.6365 115.45 91.4772C115.835 91.3179 116.184 91.0828 116.478 90.7855C116.772 90.4883 117.005 90.1348 117.163 89.7456C117.321 89.3564 117.401 88.9393 117.398 88.5185H117.395Z" fill="white"/>
<path d="M115.956 88.4856C115.958 88.7184 115.915 88.9493 115.828 89.1651C115.742 89.3809 115.615 89.5774 115.454 89.7433C115.292 89.9093 115.101 90.0413 114.889 90.132C114.677 90.2227 114.45 90.2703 114.22 90.2719C113.286 90.2719 112.455 89.4305 112.463 88.483C112.47 88.0127 112.659 87.564 112.988 87.2326C113.318 86.9012 113.762 86.7134 114.226 86.7093C115.203 86.7017 115.96 87.4817 115.956 88.4856Z" fill="white"/>
</g>
<defs>
<linearGradient id="paint0_linear_362_25" x1="75.1383" y1="-7.61365" x2="75.1383" y2="149.741" gradientUnits="userSpaceOnUse">
<stop stop-color="#9497AB"/>
<stop offset="1" stop-color="#373945"/>
</linearGradient>
<clipPath id="clip0_362_25">
<rect width="104.903" height="37.3144" fill="white" transform="translate(22.6865 58.7151)"/>
</clipPath>
</defs>
</svg>
