<svg width="91" height="66" viewBox="0 0 91 66" fill="none" xmlns="http://www.w3.org/2000/svg">
<g id="&#208;&#186;&#208;&#187;&#208;&#184;&#208;&#181;&#208;&#189;&#209;&#130;&#209;&#139;" clip-path="url(#clip0_166_354)">
<g id="&#208;&#186;&#208;&#187;&#208;&#184;&#208;&#181;&#208;&#189;&#209;&#130;&#208;&#190;&#208;&#190;&#209;&#128;&#208;&#184;&#208;&#181;&#208;&#189;&#209;&#130;&#208;&#184;&#209;&#128;&#208;&#190;&#208;&#178;&#208;&#176;&#208;&#189;&#208;&#189;&#208;&#190;&#209;&#129;&#209;&#130;&#209;&#140;">
<g id="&#208;&#161;&#208;&#187;&#208;&#190;&#208;&#185; 1">
<g id="Vector">
<path d="M42.3355 6.70229C35.481 5.67213 29.131 6.98958 23.3423 10.8065C18.9842 13.6588 15.6023 17.7959 13.6565 22.6554C11.5874 27.6345 11.0917 33.1366 12.2369 38.4105C13.3821 43.6845 16.1125 48.4734 20.0554 52.1237C25.2746 56.9421 31.4904 59.3225 38.5849 59.1009C45.6794 58.8793 51.6471 56.0966 56.6913 51.1141C54.1142 55.561 50.4268 59.2487 45.9967 61.8097C41.5835 64.4234 36.582 65.8573 31.466 65.9755C24.8732 66.1571 18.3987 64.1851 13.0068 60.3532C7.61498 56.5213 3.59438 51.0345 1.54394 44.7102C-0.506509 38.3859 -0.477069 31.5625 1.62787 25.2565C3.73281 18.9505 7.8006 13.4992 13.2253 9.71479C19.0747 5.6131 26.1703 3.72383 33.264 4.3793C36.4006 4.60386 39.4725 5.39048 42.3355 6.70229Z" fill="#414350"/>
<path d="M42.3355 6.70229C35.481 5.67213 29.131 6.98958 23.3423 10.8065C18.9842 13.6588 15.6023 17.7959 13.6565 22.6554C11.5874 27.6345 11.0917 33.1366 12.2369 38.4105C13.3821 43.6845 16.1125 48.4734 20.0554 52.1237C25.2746 56.9421 31.4904 59.3225 38.5849 59.1009C45.6794 58.8793 51.6471 56.0966 56.6913 51.1141C54.1142 55.561 50.4268 59.2487 45.9967 61.8097C41.5835 64.4234 36.582 65.8573 31.466 65.9755C24.8732 66.1571 18.3987 64.1851 13.0068 60.3532C7.61498 56.5213 3.59438 51.0345 1.54394 44.7102C-0.506509 38.3859 -0.477069 31.5625 1.62787 25.2565C3.73281 18.9505 7.8006 13.4992 13.2253 9.71479C19.0747 5.6131 26.1703 3.72383 33.264 4.3793C36.4006 4.60386 39.4725 5.39048 42.3355 6.70229Z" fill="url(#paint0_linear_166_354)"/>
</g>
<g id="Vector_2">
<path d="M31.0227 50.5805C31.0878 50.3465 31.1285 50.17 31.1773 50.0264C31.5841 48.8239 31.9502 47.6254 32.3326 46.4229C32.4343 46.111 32.5278 45.799 32.6417 45.4912C32.6863 45.398 32.6943 45.2912 32.6641 45.1922C32.634 45.0933 32.5678 45.0095 32.479 44.9577C31.0959 43.9563 29.7128 42.9466 28.3338 41.9411L28.1914 41.8221C28.2934 41.7996 28.3967 41.7832 28.5006 41.7728C30.1711 41.7728 31.8444 41.7728 33.5204 41.7728C33.6137 41.787 33.7087 41.7635 33.7849 41.7074C33.861 41.6513 33.9122 41.5671 33.9272 41.4732C34.3096 40.2419 34.7083 39.0394 35.0988 37.8245C35.2127 37.4675 35.3184 37.1145 35.4324 36.7574C35.4739 36.6428 35.5214 36.5305 35.5747 36.4209H35.648C35.7537 36.7369 35.8554 37.053 35.9612 37.369C36.4046 38.7398 36.8561 40.1106 37.2914 41.4732C37.31 41.557 37.3593 41.6307 37.4295 41.6794C37.4996 41.7281 37.5855 41.7483 37.6697 41.7359C39.3254 41.7359 40.981 41.7359 42.6408 41.7359C42.6827 41.7318 42.7249 41.7318 42.7669 41.7359C42.8189 41.7563 42.8693 41.781 42.9174 41.8097C42.8919 41.8587 42.8605 41.9042 42.8238 41.9452L41.1641 43.1764C40.3342 43.7866 39.503 44.3968 38.6704 45.0069C38.6076 45.0447 38.5614 45.1051 38.541 45.176C38.5206 45.2468 38.5276 45.3228 38.5606 45.3886L39.183 47.3135C39.5166 48.3314 39.8461 49.3656 40.1796 50.367C40.1839 50.4244 40.1839 50.482 40.1796 50.5394C40.098 50.5013 40.0192 50.4574 39.9437 50.4081C38.5769 49.4149 37.2141 48.4299 35.8554 47.4325C35.7922 47.3691 35.7066 47.3335 35.6174 47.3335C35.5283 47.3335 35.4427 47.3691 35.3795 47.4325C34.0208 48.4381 32.6539 49.4395 31.3115 50.4409C31.2178 50.4926 31.1214 50.5392 31.0227 50.5805Z" fill="#414350"/>
<path d="M31.0227 50.5805C31.0878 50.3465 31.1285 50.17 31.1773 50.0264C31.5841 48.8239 31.9502 47.6254 32.3326 46.4229C32.4343 46.111 32.5278 45.799 32.6417 45.4912C32.6863 45.398 32.6943 45.2912 32.6641 45.1922C32.634 45.0933 32.5678 45.0095 32.479 44.9577C31.0959 43.9563 29.7128 42.9466 28.3338 41.9411L28.1914 41.8221C28.2934 41.7996 28.3967 41.7832 28.5006 41.7728C30.1711 41.7728 31.8444 41.7728 33.5204 41.7728C33.6137 41.787 33.7087 41.7635 33.7849 41.7074C33.861 41.6513 33.9122 41.5671 33.9272 41.4732C34.3096 40.2419 34.7083 39.0394 35.0988 37.8245C35.2127 37.4675 35.3184 37.1145 35.4324 36.7574C35.4739 36.6428 35.5214 36.5305 35.5747 36.4209H35.648C35.7537 36.7369 35.8554 37.053 35.9612 37.369C36.4046 38.7398 36.8561 40.1106 37.2914 41.4732C37.31 41.557 37.3593 41.6307 37.4295 41.6794C37.4996 41.7281 37.5855 41.7483 37.6697 41.7359C39.3254 41.7359 40.981 41.7359 42.6408 41.7359C42.6827 41.7318 42.7249 41.7318 42.7669 41.7359C42.8189 41.7563 42.8693 41.781 42.9174 41.8097C42.8919 41.8587 42.8605 41.9042 42.8238 41.9452L41.1641 43.1764C40.3342 43.7866 39.503 44.3968 38.6704 45.0069C38.6076 45.0447 38.5614 45.1051 38.541 45.176C38.5206 45.2468 38.5276 45.3228 38.5606 45.3886L39.183 47.3135C39.5166 48.3314 39.8461 49.3656 40.1796 50.367C40.1839 50.4244 40.1839 50.482 40.1796 50.5394C40.098 50.5013 40.0192 50.4574 39.9437 50.4081C38.5769 49.4149 37.2141 48.4299 35.8554 47.4325C35.7922 47.3691 35.7066 47.3335 35.6174 47.3335C35.5283 47.3335 35.4427 47.3691 35.3795 47.4325C34.0208 48.4381 32.6539 49.4395 31.3115 50.4409C31.2178 50.4926 31.1214 50.5392 31.0227 50.5805Z" fill="url(#paint1_linear_166_354)"/>
</g>
<g id="Vector_3">
<path d="M63.1792 53.2851V28.0483H54.1687C54.1558 28.6621 53.9977 29.2639 53.7075 29.8036C53.4174 30.3433 53.0037 30.8053 52.5008 31.151C51.8535 31.6132 51.0719 31.8443 50.2797 31.8077C48.2661 31.7174 47.0986 30.519 46.6186 28.0483C46.0714 28.0368 45.5333 27.9053 45.0415 27.6629C44.5498 27.4205 44.1163 27.073 43.771 26.6446C43.2765 26.0401 42.9909 25.2894 42.9574 24.5063C42.9159 23.9898 42.9813 23.4703 43.1494 22.9807C43.3174 22.4911 43.5845 22.042 43.9337 21.6621C44.2796 21.2925 44.6946 20.9957 45.1547 20.7886C45.6147 20.5815 46.1109 20.4683 46.6145 20.4554C47.1393 17.9929 48.3719 16.7616 50.235 16.7001C50.7418 16.674 51.2487 16.7526 51.7243 16.9312C52.2 17.1097 52.6345 17.3844 53.0012 17.7384C53.3635 18.0876 53.6539 18.5056 53.8557 18.9683C54.0574 19.4311 54.1666 19.9295 54.1768 20.4349H63.2077V11.3523C62.6435 11.3394 62.089 11.2014 61.5836 10.9482C61.0781 10.695 60.634 10.3327 60.2828 9.88707C59.7466 9.22694 59.4584 8.39702 59.4692 7.54356C59.4648 7.0495 59.5586 6.55956 59.7452 6.10274C59.9317 5.64592 60.2072 5.23151 60.5554 4.88402C61.2502 4.18518 62.1823 3.7788 63.1629 3.74715C63.704 1.14097 64.9366 0 67.121 0C69.0248 0.0205211 70.3062 1.32566 70.7822 3.74305C71.3592 3.7675 71.9231 3.92348 72.4318 4.19928C72.9405 4.47508 73.3806 4.86353 73.7192 5.33549C74.2219 6.01183 74.4777 6.84255 74.4433 7.68721C74.3538 9.70238 73.044 11.0075 70.7415 11.381V20.4349H79.7317C80.1914 18.0463 81.4646 16.7411 83.3359 16.7001C85.5082 16.6631 86.7163 17.7918 87.3306 20.4513C87.8422 20.4659 88.3454 20.5852 88.8099 20.8019C89.2744 21.0186 89.6905 21.3282 90.0328 21.712C90.3751 22.0958 90.6367 22.5457 90.8015 23.0345C90.9664 23.5233 91.0311 24.0408 90.9918 24.5556C90.8941 26.4107 89.5395 27.7035 87.2818 28.0729C87.2684 28.647 87.1277 29.2108 86.87 29.7228C86.6124 30.2349 86.2443 30.6822 85.7929 31.032C85.1356 31.5455 84.3258 31.8202 83.4945 31.8118C81.4958 31.8118 80.2334 30.5573 79.7073 28.0483H70.7578V53.3097C71.3447 53.3266 71.92 53.4794 72.4391 53.7562C72.9582 54.033 73.4073 54.4265 73.7518 54.9063C74.2371 55.5688 74.4865 56.3772 74.4596 57.2005C74.442 58.1837 74.0434 59.1207 73.3491 59.8108C72.7999 60.3772 72.4094 60.5373 70.7619 60.9477C70.2289 63.5046 69.0045 64.6702 66.8566 64.6415C64.9162 64.6415 63.647 63.3528 63.1711 60.9026C62.5966 60.8876 62.0329 60.7417 61.5222 60.4759C61.0114 60.2101 60.5669 59.8312 60.2218 59.3676C59.6865 58.6399 59.4278 57.7426 59.4928 56.8388C59.5577 55.935 59.942 55.0847 60.5757 54.4425C61.1656 53.831 61.5357 53.675 63.1792 53.2851Z" fill="#414350"/>
<path d="M63.1792 53.2851V28.0483H54.1687C54.1558 28.6621 53.9977 29.2639 53.7075 29.8036C53.4174 30.3433 53.0037 30.8053 52.5008 31.151C51.8535 31.6132 51.0719 31.8443 50.2797 31.8077C48.2661 31.7174 47.0986 30.519 46.6186 28.0483C46.0714 28.0368 45.5333 27.9053 45.0415 27.6629C44.5498 27.4205 44.1163 27.073 43.771 26.6446C43.2765 26.0401 42.9909 25.2894 42.9574 24.5063C42.9159 23.9898 42.9813 23.4703 43.1494 22.9807C43.3174 22.4911 43.5845 22.042 43.9337 21.6621C44.2796 21.2925 44.6946 20.9957 45.1547 20.7886C45.6147 20.5815 46.1109 20.4683 46.6145 20.4554C47.1393 17.9929 48.3719 16.7616 50.235 16.7001C50.7418 16.674 51.2487 16.7526 51.7243 16.9312C52.2 17.1097 52.6345 17.3844 53.0012 17.7384C53.3635 18.0876 53.6539 18.5056 53.8557 18.9683C54.0574 19.4311 54.1666 19.9295 54.1768 20.4349H63.2077V11.3523C62.6435 11.3394 62.089 11.2014 61.5836 10.9482C61.0781 10.695 60.634 10.3327 60.2828 9.88707C59.7466 9.22694 59.4584 8.39702 59.4692 7.54356C59.4648 7.0495 59.5586 6.55956 59.7452 6.10274C59.9317 5.64592 60.2072 5.23151 60.5554 4.88402C61.2502 4.18518 62.1823 3.7788 63.1629 3.74715C63.704 1.14097 64.9366 0 67.121 0C69.0248 0.0205211 70.3062 1.32566 70.7822 3.74305C71.3592 3.7675 71.9231 3.92348 72.4318 4.19928C72.9405 4.47508 73.3806 4.86353 73.7192 5.33549C74.2219 6.01183 74.4777 6.84255 74.4433 7.68721C74.3538 9.70238 73.044 11.0075 70.7415 11.381V20.4349H79.7317C80.1914 18.0463 81.4646 16.7411 83.3359 16.7001C85.5082 16.6631 86.7163 17.7918 87.3306 20.4513C87.8422 20.4659 88.3454 20.5852 88.8099 20.8019C89.2744 21.0186 89.6905 21.3282 90.0328 21.712C90.3751 22.0958 90.6367 22.5457 90.8015 23.0345C90.9664 23.5233 91.0311 24.0408 90.9918 24.5556C90.8941 26.4107 89.5395 27.7035 87.2818 28.0729C87.2684 28.647 87.1277 29.2108 86.87 29.7228C86.6124 30.2349 86.2443 30.6822 85.7929 31.032C85.1356 31.5455 84.3258 31.8202 83.4945 31.8118C81.4958 31.8118 80.2334 30.5573 79.7073 28.0483H70.7578V53.3097C71.3447 53.3266 71.92 53.4794 72.4391 53.7562C72.9582 54.033 73.4073 54.4265 73.7518 54.9063C74.2371 55.5688 74.4865 56.3772 74.4596 57.2005C74.442 58.1837 74.0434 59.1207 73.3491 59.8108C72.7999 60.3772 72.4094 60.5373 70.7619 60.9477C70.2289 63.5046 69.0045 64.6702 66.8566 64.6415C64.9162 64.6415 63.647 63.3528 63.1711 60.9026C62.5966 60.8876 62.0329 60.7417 61.5222 60.4759C61.0114 60.2101 60.5669 59.8312 60.2218 59.3676C59.6865 58.6399 59.4278 57.7426 59.4928 56.8388C59.5577 55.935 59.942 55.0847 60.5757 54.4425C61.1656 53.831 61.5357 53.675 63.1792 53.2851Z" fill="url(#paint2_linear_166_354)"/>
</g>
</g>
</g>
</g>
<defs>
<linearGradient id="paint0_linear_166_354" x1="4.94099" y1="12.1815" x2="45.2542" y2="60.9945" gradientUnits="userSpaceOnUse">
<stop stop-color="#6C6C6C"/>
<stop offset="0.494792" stop-color="#B9B9B9"/>
<stop offset="1" stop-color="#6C6C6C"/>
</linearGradient>
<linearGradient id="paint1_linear_166_354" x1="29.4684" y1="38.2396" x2="38.4323" y2="50.538" gradientUnits="userSpaceOnUse">
<stop stop-color="#6C6C6C"/>
<stop offset="0.494792" stop-color="#B9B9B9"/>
<stop offset="1" stop-color="#6C6C6C"/>
</linearGradient>
<linearGradient id="paint2_linear_166_354" x1="47.1127" y1="8.30291" x2="90.0909" y2="50.454" gradientUnits="userSpaceOnUse">
<stop stop-color="#6C6C6C"/>
<stop offset="0.494792" stop-color="#B9B9B9"/>
<stop offset="1" stop-color="#6C6C6C"/>
</linearGradient>
<clipPath id="clip0_166_354">
<rect width="91" height="66" fill="white"/>
</clipPath>
</defs>
</svg>
