<svg width="82" height="80" viewBox="0 0 82 80" fill="none" xmlns="http://www.w3.org/2000/svg">
<g id="&#209;&#141;&#208;&#186;&#208;&#190; ">
<g id="&#208;&#161;&#208;&#187;&#208;&#190;&#208;&#185; 1">
<path id="Vector" d="M30.5378 63.6319C34.3532 66.233 39.6697 67.3739 43.8347 64.8425C45.2412 63.9819 46.4619 62.8508 47.4256 61.515C48.3859 60.1613 49.5449 59.7027 51.0461 59.4569C55.4612 58.7232 59.8763 57.8904 64.2915 57.1273C67.772 56.5256 71.2526 55.9166 74.7479 55.414C76.5774 55.1283 78.4497 55.4836 80.0461 56.4192C81.2088 57.0943 82.0403 58.0188 81.9998 59.3909C82.0157 60.1421 81.8092 60.8814 81.4061 61.5163C81.003 62.1511 80.4212 62.6535 79.7334 62.9605C77.6681 63.9388 75.5954 64.889 73.5154 65.8111C64.3638 69.9053 55.2122 73.9947 46.0606 78.0792C44.5409 78.7256 42.8999 79.0396 41.2481 79C36.0199 79 31.1338 77.4848 26.3839 75.5221C22.734 74.0106 19.1872 72.2643 15.5815 70.6464C15.1754 70.4703 14.7366 70.3815 14.2938 70.3859C11.5454 70.4116 8.80062 70.4703 6.05588 70.5253C5.6822 70.565 5.30673 70.4688 4.9985 70.2545C4.69026 70.0401 4.46997 69.722 4.37813 69.3587C2.96161 65.3452 1.51198 61.3426 0.0880988 57.3327C-0.195205 56.5403 0.224232 55.9166 1.06679 55.7956C6.21777 55.0618 11.3688 54.3648 16.5197 53.5466C18.3925 53.2458 20.2248 52.6662 22.0681 52.1892C24.7645 51.4966 27.5782 51.3865 30.3207 51.8664C34.0515 52.5047 37.7455 53.3852 41.4431 54.207C42.1597 54.3949 42.8504 54.6696 43.4999 55.0251C45.1776 55.8653 45.6081 57.2814 44.7324 58.9396C43.6286 61.0565 41.789 62.3112 39.6035 63.1293C36.8471 64.1579 33.8456 64.3431 30.983 63.6612C30.8354 63.6412 30.6867 63.6313 30.5378 63.6319Z" fill="url(#paint0_linear_166_381)"/>
<path id="Vector_2" d="M22.1523 27.631C22.1516 24.8431 22.98 22.1176 24.5329 19.7992C26.0857 17.4808 28.2931 15.6736 30.876 14.6062C33.459 13.5388 36.3013 13.2592 39.0436 13.8026C41.7859 14.3461 44.305 15.6882 46.2823 17.6593C48.2596 19.6304 49.6063 22.1419 50.152 24.8762C50.6977 27.6104 50.418 30.4447 49.3482 33.0205C48.2784 35.5962 46.4666 37.7978 44.1419 39.3467C41.8172 40.8957 39.0841 41.7224 36.2881 41.7224C32.5397 41.7224 28.9448 40.2379 26.2939 37.5954C23.6431 34.9528 22.1533 31.3686 22.1523 27.631ZM38.4331 21.2585H38.1682C37.2337 21.2585 36.2992 21.2585 35.3646 21.2585C35.2839 21.2528 35.2029 21.2653 35.1278 21.2952C35.0526 21.325 34.9851 21.3714 34.9305 21.4309C33.682 22.6538 32.431 23.8767 31.1776 25.0996C31.0635 25.2097 30.9385 25.3087 30.8097 25.4151L30.8538 25.4848H34.1247V33.9668H38.4258L38.4331 21.2585Z" fill="url(#paint1_linear_166_381)"/>
<path id="Vector_3" d="M49.839 16.9514H50.505V6.98361C50.4498 6.98361 50.3909 6.98361 50.3321 6.98361C49.5962 6.98361 48.8604 6.98361 48.1245 6.98361C48.0338 6.98217 47.9455 7.01198 47.8743 7.06799C46.8 8.13191 45.7293 9.20317 44.6255 10.3038H47.1532V14.2953C44.5667 12.1708 41.4122 10.8493 38.0801 10.4945C38.4077 7.92962 39.6399 5.56463 41.5564 3.82282C43.4728 2.08101 45.9483 1.07605 48.5399 0.987795C51.1315 0.899539 53.67 1.73374 55.7012 3.34112C57.7324 4.9485 59.1236 7.22414 59.6259 9.76081C60.1504 12.321 59.7382 14.9838 58.464 17.2671C57.1898 19.5505 55.1377 21.3034 52.6794 22.2087C52.041 20.3073 51.0803 18.5291 49.839 16.9514Z" fill="url(#paint2_linear_166_381)"/>
</g>
</g>
<defs>
<linearGradient id="paint0_linear_166_381" x1="7.11078" y1="55.0964" x2="15.8026" y2="89.3741" gradientUnits="userSpaceOnUse">
<stop stop-color="#6C6C6C"/>
<stop offset="0.494792" stop-color="#B9B9B9"/>
<stop offset="1" stop-color="#6C6C6C"/>
</linearGradient>
<linearGradient id="paint1_linear_166_381" x1="24.6039" y1="17.1531" x2="42.639" y2="41.0137" gradientUnits="userSpaceOnUse">
<stop stop-color="#6C6C6C"/>
<stop offset="0.494792" stop-color="#B9B9B9"/>
<stop offset="1" stop-color="#6C6C6C"/>
</linearGradient>
<linearGradient id="paint2_linear_166_381" x1="39.9677" y1="3.70797" x2="53.4628" y2="21.9641" gradientUnits="userSpaceOnUse">
<stop stop-color="#6C6C6C"/>
<stop offset="0.494792" stop-color="#B9B9B9"/>
<stop offset="1" stop-color="#6C6C6C"/>
</linearGradient>
</defs>
</svg>
