<svg width="75" height="70" viewBox="0 0 75 70" fill="none" xmlns="http://www.w3.org/2000/svg">
<g id="&#208;&#190;&#209;&#130;&#209;&#128;&#209;&#139;&#209;&#130;&#208;&#190;&#209;&#129;&#209;&#130;&#209;&#140;" clip-path="url(#clip0_166_395)">
<g id="&#208;&#161;&#208;&#187;&#208;&#190;&#208;&#185; 2">
<g id="&#208;&#161;&#208;&#187;&#208;&#190;&#208;&#185; 1">
<path id="Vector" d="M75.0002 22.0965C74.9443 22.6763 74.8885 23.2561 74.829 23.8359C74.5177 26.5344 73.8711 29.1818 72.9045 31.7143C71.2351 36.0226 69.0095 40.0853 66.2863 43.7953C62.6754 48.7474 58.6206 53.3475 54.1741 57.5361C50.1429 61.4128 45.8883 65.0166 41.5184 68.4992C40.8834 69.0402 40.1499 69.4486 39.3599 69.7009C38.5698 69.9531 37.7387 70.0444 36.9139 69.9695C35.7618 69.8552 34.6644 69.414 33.7463 68.6963C33.8505 68.6245 33.9512 68.5473 34.0478 68.4651C40.0431 62.3615 46.0409 56.2565 52.0412 50.1504C52.4855 49.7519 52.811 49.2345 52.9808 48.6571C53.1505 48.0796 53.1577 47.4652 53.0016 46.8838C52.8624 46.3699 52.5986 45.8999 52.2344 45.517C51.8702 45.1341 51.4172 44.8506 50.9172 44.6925C50.4172 44.5343 49.8862 44.5068 49.373 44.6122C48.8598 44.7177 48.3808 44.9528 47.9802 45.296C47.8388 45.4173 47.7011 45.5499 47.5708 45.6749L42.1512 51.1887L41.939 51.3971L40.0779 49.5024C40.1657 49.4516 40.2492 49.3933 40.3272 49.328C44.248 45.3389 48.1676 41.3498 52.0859 37.3607C52.4578 37.0187 52.743 36.5903 52.9173 36.112C53.0916 35.6336 53.1499 35.1195 53.0872 34.6133C53.0357 34.0371 52.8232 33.4879 52.475 33.0306C52.1267 32.5733 51.6572 32.227 51.1218 32.0327C50.5977 31.8098 50.0223 31.7428 49.4623 31.8393C48.9023 31.9359 48.3806 32.1922 47.9579 32.5784C47.8313 32.6883 47.7122 32.8133 47.5857 32.9346L35.9387 44.7958C35.8669 44.8751 35.7998 44.9586 35.7377 45.0459L33.8766 43.1511C33.9026 43.1208 33.9771 43.0374 34.0589 42.9541C38.9922 37.9342 43.9267 32.9131 48.8624 27.8907C49.2104 27.5809 49.4898 27.1995 49.6823 26.7716C49.8748 26.3438 49.976 25.8792 49.9791 25.4086C49.9725 24.8082 49.7993 24.2219 49.4793 23.7175C49.1594 23.213 48.7059 22.811 48.1711 22.5578C47.6363 22.3046 47.0421 22.2105 46.457 22.2865C45.872 22.3625 45.3199 22.6053 44.8647 22.9871C44.7177 23.1025 44.5796 23.2292 44.4515 23.366L29.6481 38.49C29.5773 38.562 29.5215 38.6454 29.4768 38.6984L27.571 36.7582C27.6676 36.7206 27.758 36.6682 27.839 36.6028C31.7673 32.6087 35.693 28.6183 39.6163 24.6317C40.2308 24.0644 40.5988 23.2717 40.6393 22.4282C40.6798 21.5846 40.3895 20.7592 39.8322 20.1336C39.2749 19.5079 38.4963 19.1333 37.6677 19.0921C36.8391 19.0509 36.0284 19.3464 35.4138 19.9138C35.2873 20.0313 35.1682 20.1487 35.0416 20.27L15.9501 39.7216C15.8659 39.8163 15.7876 39.9163 15.7156 40.021L15.6225 39.9679V39.6496C15.6225 35.994 15.6225 32.3371 15.6225 28.6789C15.6394 27.9265 15.39 27.193 14.9199 26.6121C14.4498 26.0312 13.7903 25.6418 13.0616 25.5147C12.7673 25.4698 12.4694 25.4533 12.172 25.4654C11.2563 25.4654 10.3369 25.4654 9.38402 25.4654V44.5646L9.31702 44.5911C9.04902 44.2122 8.77357 43.8332 8.50557 43.4543C5.89209 39.8413 3.74422 35.9022 2.11443 31.7333C1.0339 28.9294 0.350844 25.9832 0.0857953 22.9833C-0.372044 17.3786 0.990307 12.2969 4.46691 7.87827C7.60335 3.7768 12.1645 1.05497 17.212 0.272707C22.1849 -0.557198 26.7745 0.511447 30.9843 3.30432C33.4803 4.9283 35.6608 7.00686 37.4164 9.43576C37.4422 9.47484 37.4658 9.51532 37.4872 9.55703C38.351 8.34545 39.3229 7.21769 40.3905 6.18815C42.7924 3.80521 45.6905 2.00356 48.8698 0.916925C51.2565 0.130133 53.7756 -0.15353 56.2734 0.0832308C60.6243 0.46057 64.7421 2.24604 68.0242 5.17822C71.3062 8.11041 73.58 12.0353 74.5126 16.3782C74.7247 17.3672 74.8029 18.3866 74.9406 19.4098C74.9406 19.5083 74.9778 19.6106 74.9965 19.7092L75.0002 22.0965Z" fill="url(#paint0_linear_166_395)"/>
</g>
</g>
</g>
<defs>
<linearGradient id="paint0_linear_166_395" x1="6.50368" y1="8.9894" x2="50.3956" y2="71.0314" gradientUnits="userSpaceOnUse">
<stop stop-color="#6C6C6C"/>
<stop offset="0.494792" stop-color="#B9B9B9"/>
<stop offset="1" stop-color="#6C6C6C"/>
</linearGradient>
<clipPath id="clip0_166_395">
<rect width="75" height="70" fill="white"/>
</clipPath>
</defs>
</svg>
