<svg width="64" height="86" viewBox="0 0 64 86" fill="none" xmlns="http://www.w3.org/2000/svg">
<g id="&#208;&#161;&#208;&#187;&#208;&#190;&#208;&#185; 2">
<g id="&#208;&#161;&#208;&#187;&#208;&#190;&#208;&#185; 1">
<path id="Vector" d="M17.6521 3.67311C18.2573 3.85256 18.8528 4.0635 19.436 4.30507C20.144 4.64105 20.8079 5.06903 21.4959 5.449C22.4925 5.97551 23.65 6.11027 24.7409 5.82681C25.8318 5.54335 26.7773 4.86216 27.3915 3.9171C27.8515 3.20114 28.2755 2.42119 28.7354 1.68523C29.0432 1.17321 29.4777 0.749149 29.9971 0.453965C30.5164 0.158781 31.1031 0.00244039 31.7005 2.83396e-05C32.2979 -0.00238371 32.8858 0.149214 33.4075 0.440194C33.9293 0.731175 34.3672 1.15171 34.6791 1.66123C35.135 2.37719 35.555 3.11315 35.991 3.8371C36.5936 4.81616 37.5481 5.52743 38.6586 5.82494C39.769 6.12246 40.9513 5.98365 41.9626 5.437C42.6706 5.03703 43.3625 4.63705 44.0745 4.26108C44.6015 3.95623 45.1992 3.7945 45.808 3.79193C46.4169 3.78936 47.0158 3.94603 47.5454 4.24641C48.075 4.54679 48.5169 4.98044 48.8272 5.50432C49.1374 6.02819 49.3053 6.62409 49.3142 7.23289C49.3502 8.10084 49.3382 8.96879 49.3702 9.83673C49.4105 10.9339 49.8596 11.9764 50.6293 12.7594C51.399 13.5424 52.4336 14.0093 53.5299 14.0685C54.3739 14.1125 55.2218 14.1045 56.0698 14.1245C58.9016 14.1885 60.5015 16.9243 59.1616 19.4001C58.7616 20.1121 58.3616 20.8041 57.9896 21.516C57.4544 22.522 57.322 23.6939 57.6191 24.794C57.9162 25.8941 58.6207 26.8399 59.5895 27.4397C60.2935 27.8756 61.0135 28.2836 61.7134 28.7236C62.235 29.0316 62.6673 29.4703 62.9676 29.9963C63.2679 30.5224 63.4258 31.1177 63.4258 31.7234C63.4258 32.3291 63.2679 32.9244 62.9676 33.4505C62.6673 33.9765 62.235 34.4152 61.7134 34.7232C60.9935 35.1752 60.2575 35.5912 59.5375 36.0391C58.5854 36.6471 57.8974 37.5915 57.6105 38.6842C57.3236 39.7769 57.459 40.9375 57.9896 41.9348C58.3896 42.6467 58.7896 43.3387 59.1656 44.0506C59.4822 44.5835 59.652 45.1908 59.6576 45.8106C59.6633 46.4304 59.5046 47.0406 59.1977 47.5792C58.8909 48.1177 58.4468 48.5653 57.9107 48.8764C57.3746 49.1876 56.7656 49.3511 56.1458 49.3503C55.3218 49.3823 54.4939 49.3503 53.6659 49.3823C52.5603 49.4183 51.508 49.8661 50.7155 50.6379C49.9229 51.4097 49.4474 52.4498 49.3822 53.5541C49.3422 54.422 49.3542 55.2939 49.3262 56.1579C49.3305 56.777 49.1702 57.3862 48.8615 57.9229C48.5529 58.4597 48.1071 58.9047 47.5699 59.2125C47.0326 59.5202 46.4231 59.6795 45.804 59.6741C45.1849 59.6687 44.5783 59.4988 44.0465 59.1817C43.3185 58.7817 42.6066 58.3618 41.8746 57.9818C40.8744 57.4612 39.7143 57.3385 38.6273 57.6383C37.5403 57.938 36.607 58.6381 36.015 59.5977C35.567 60.3176 35.147 61.0576 34.6911 61.7696C34.382 62.2813 33.946 62.7045 33.4254 62.9983C32.9048 63.2921 32.3171 63.4465 31.7193 63.4465C31.1214 63.4465 30.5338 63.2921 30.0131 62.9983C29.4925 62.7045 29.0565 62.2813 28.7474 61.7696C28.2795 61.0376 27.8555 60.2816 27.3915 59.5457C26.7902 58.6051 25.8579 57.9242 24.7789 57.6376C23.6999 57.351 22.5527 57.4796 21.5639 57.9978C20.8159 58.3978 20.088 58.8337 19.34 59.2297C18.8269 59.5218 18.248 59.6786 17.6576 59.6856C17.0673 59.6925 16.4848 59.5493 15.965 59.2694C15.4452 58.9895 15.005 58.5821 14.6858 58.0854C14.3666 57.5887 14.1789 57.019 14.1403 56.4299C14.0563 55.5459 14.0923 54.654 14.0763 53.766C14.0589 52.6158 13.5953 51.5174 12.7834 50.7025C11.9715 49.8876 10.8747 49.42 9.7246 49.3983C8.75296 49.4205 7.78084 49.3884 6.81278 49.3023C6.25081 49.233 5.71449 49.0267 5.25098 48.7015C4.78746 48.3762 4.41096 47.9421 4.15458 47.4373C3.8982 46.9324 3.76981 46.3723 3.78068 45.8062C3.79155 45.24 3.94136 44.6853 4.21694 44.1906C4.61691 43.4387 5.04888 42.7107 5.45286 41.9668C5.99001 40.9612 6.12355 39.7886 5.82629 38.688C5.52903 37.5874 4.82332 36.6415 3.85296 36.0431C3.133 35.5952 2.39705 35.1752 1.68109 34.7232C1.16835 34.4154 0.744026 33.9801 0.44943 33.4597C0.154834 32.9393 0 32.3514 0 31.7534C0 31.1554 0.154834 30.5675 0.44943 30.0471C0.744026 29.5267 1.16835 29.0914 1.68109 28.7836C2.41305 28.3156 3.169 27.8876 3.90096 27.4237C4.85921 26.8251 5.5532 25.8837 5.84155 24.7912C6.12989 23.6988 5.99089 22.5375 5.45286 21.544C5.05288 20.8001 4.61291 20.0721 4.22094 19.3202C3.92235 18.7877 3.76857 18.1863 3.77492 17.5759C3.78127 16.9655 3.94753 16.3674 4.25712 15.8413C4.56672 15.3152 5.00883 14.8795 5.53936 14.5775C6.06989 14.2756 6.67031 14.118 7.28075 14.1205C8.1287 14.0925 8.97664 14.1205 9.82059 14.0645C10.9616 14.0261 12.0431 13.5456 12.8364 12.7246C13.6298 11.9037 14.073 10.8064 14.0723 9.66474C14.0723 8.7528 14.0723 7.84086 14.1603 6.93691C14.2505 6.06311 14.6537 5.25141 15.2954 4.65156C15.9372 4.05171 16.7742 3.70419 17.6521 3.67311ZM29.9634 35.5552C29.6714 35.1832 29.5434 34.9872 29.3874 34.8232C27.7555 33.1806 26.1209 31.5394 24.4837 29.8995C24.1121 29.491 23.6379 29.1896 23.1104 29.0264C22.5828 28.8632 22.0212 28.8443 21.4839 28.9716C20.9191 29.0793 20.3968 29.3463 19.9787 29.741C19.5606 30.1357 19.2641 30.6417 19.124 31.1994C18.946 31.7598 18.9331 32.3596 19.0871 32.9271C19.241 33.4945 19.5552 34.0056 19.992 34.3992C22.4718 36.8871 24.957 39.3736 27.4475 41.8588C29.0474 43.4587 30.8313 43.4587 32.4432 41.8588L39.1908 35.0752C41.6466 32.6193 44.1145 30.1715 46.5583 27.6996C48.2662 25.9717 47.7103 23.2239 45.4944 22.42C44.1425 21.928 42.9906 22.3 41.9906 23.2999C38.1855 27.1237 34.3724 30.9421 30.5513 34.7552C30.3382 35.0088 30.1418 35.276 29.9634 35.5552Z" fill="url(#paint0_linear_166_408)"/>
<path id="Vector_2" d="M61.7215 77.0926L56.2818 76.6206C54.182 76.4367 52.0821 76.2607 49.9822 76.0607C49.8021 76.0331 49.6178 76.0558 49.4498 76.1264C49.2818 76.197 49.1366 76.3127 49.0303 76.4607C46.6064 79.3351 44.1706 82.203 41.7227 85.0641L41.2308 85.6321L34.4512 69.4091C35.7332 69.0254 36.9265 68.3913 37.9618 67.5434C38.9971 66.6955 39.854 65.6507 40.4828 64.4694C43.0186 65.9613 45.6825 66.4493 48.4823 65.6333C51.2821 64.8174 53.306 63.0215 54.7179 60.3536C57.0658 65.9573 59.3656 71.457 61.7215 77.0926Z" fill="url(#paint1_linear_166_408)"/>
<path id="Vector_3" d="M22.9675 64.5095C23.591 65.6831 24.443 66.7202 25.4734 67.5596C26.5037 68.399 27.6916 69.0238 28.9671 69.3972C26.6992 74.8208 24.4594 80.1965 22.1675 85.6402L19.7676 82.8403C17.9598 80.7165 16.1679 78.5926 14.356 76.4407C14.2493 76.2921 14.1034 76.176 13.9347 76.1053C13.7659 76.0347 13.5808 76.0124 13.4 76.0407C9.90159 76.3661 6.40047 76.6794 2.89668 76.9807L1.67676 77.0767L8.68433 60.3977C12.7921 66.2373 16.3919 67.2733 22.9675 64.5095Z" fill="url(#paint2_linear_166_408)"/>
</g>
</g>
<defs>
<linearGradient id="paint0_linear_166_408" x1="5.5" y1="8.14935" x2="46.1261" y2="61.7261" gradientUnits="userSpaceOnUse">
<stop stop-color="#6C6C6C"/>
<stop offset="0.494792" stop-color="#B9B9B9"/>
<stop offset="1" stop-color="#6C6C6C"/>
</linearGradient>
<linearGradient id="paint1_linear_166_408" x1="36.8159" y1="63.6005" x2="52.6309" y2="86.1078" gradientUnits="userSpaceOnUse">
<stop stop-color="#6C6C6C"/>
<stop offset="0.494792" stop-color="#B9B9B9"/>
<stop offset="1" stop-color="#6C6C6C"/>
</linearGradient>
<linearGradient id="paint2_linear_166_408" x1="4.04325" y1="63.64" x2="19.8242" y2="86.1472" gradientUnits="userSpaceOnUse">
<stop stop-color="#6C6C6C"/>
<stop offset="0.494792" stop-color="#B9B9B9"/>
<stop offset="1" stop-color="#6C6C6C"/>
</linearGradient>
</defs>
</svg>
