<svg width="54" height="66" viewBox="0 0 54 66" fill="none" xmlns="http://www.w3.org/2000/svg">
<g id="&#208;&#189;&#208;&#176;&#208;&#180;&#209;&#145;&#208;&#182;&#208;&#189;&#208;&#190;&#209;&#129;&#209;&#130;&#209;&#140;" clip-path="url(#clip0_166_368)">
<g id="&#208;&#161;&#208;&#187;&#208;&#190;&#208;&#185; 2">
<g id="&#208;&#161;&#208;&#187;&#208;&#190;&#208;&#185; 1">
<g id="Vector">
<path d="M0.130175 8.92341L7.50331 0.241539C7.58788 0.142625 7.70481 0.07985 7.83142 0.0653866C7.95802 0.0509232 8.08529 0.085802 8.18855 0.16326C14.3557 4.63585 20.5228 5.10196 26.6899 0.113446C26.7809 0.0365873 26.8947 -0.00537109 27.012 -0.00537109C27.1293 -0.00537109 27.243 0.0365873 27.334 0.113446C32.5384 4.55757 39.5072 5.09485 45.7977 0.145469C45.8995 0.0659452 46.0262 0.0287908 46.1529 0.0412987C46.2797 0.0538067 46.3974 0.115074 46.4829 0.213074L53.8664 8.89494C53.958 9.00021 54.0061 9.13866 54.0003 9.28044C53.9946 9.42222 53.9354 9.55596 53.8355 9.65283C52.0162 11.3498 50.8361 13.6623 50.5053 16.1785C50.2105 18.4413 50.4072 20.744 51.0809 22.9176C51.7661 25.3869 52.5781 27.8243 53.1366 30.3221C53.447 31.9527 53.6304 33.6067 53.6848 35.2679C53.8615 38.3321 53.4011 41.3999 52.3349 44.2629C50.7759 48.618 48.1138 52.1797 44.7973 55.2504C40.6173 59.143 35.8104 62.0109 30.7259 64.3913C29.7186 64.8645 28.7011 65.3057 27.7041 65.7932C27.5034 65.9141 27.2765 65.9801 27.0446 65.9851C26.8127 65.9901 26.5834 65.9338 26.3781 65.8217C23.8633 64.5585 21.2731 63.4413 18.7926 62.1034C14.5303 59.8665 10.6514 56.9165 7.31144 53.3717C4.11825 49.9132 1.80215 45.9317 0.801706 41.1993C0.304265 38.7444 0.154219 36.2272 0.356303 33.7272C0.616692 30.0659 1.71307 26.6145 2.85056 23.1738C3.55174 21.1064 3.79532 18.9015 3.56321 16.7229C3.25142 13.9795 2.37775 11.7806 0.161011 9.6635C0.0638544 9.56874 0.00623958 9.43827 0.000477678 9.29998C-0.00528423 9.16168 0.0412637 9.02653 0.130175 8.92341ZM11.0083 34.7164C10.9131 34.8163 10.8597 34.9512 10.8597 35.0918C10.8597 35.2323 10.9131 35.3672 11.0083 35.4672C13.9822 38.577 16.9184 41.7117 19.9403 44.7575C21.4376 46.2661 23.507 46.1024 24.9837 44.5689L42.9917 25.8673C43.0864 25.7686 43.1397 25.6349 43.1397 25.4955C43.1397 25.3561 43.0864 25.2223 42.9917 25.1236L38.6713 20.6368C38.5749 20.5369 38.4443 20.4807 38.3081 20.4807C38.1719 20.4807 38.0413 20.5369 37.9449 20.6368L22.6573 36.531C22.6095 36.5811 22.5527 36.6208 22.4901 36.6479C22.4274 36.675 22.3603 36.6889 22.2924 36.6889C22.2246 36.6889 22.1574 36.675 22.0948 36.6479C22.0321 36.6208 21.9753 36.5811 21.9275 36.531L15.9625 30.3292C15.9151 30.2793 15.8585 30.2396 15.7962 30.2126C15.7338 30.1855 15.6669 30.1716 15.5994 30.1716C15.5318 30.1716 15.4649 30.1855 15.4026 30.2126C15.3402 30.2396 15.2837 30.2793 15.2362 30.3292L11.0083 34.7164Z" fill="#414350"/>
<path d="M0.130175 8.92341L7.50331 0.241539C7.58788 0.142625 7.70481 0.07985 7.83142 0.0653866C7.95802 0.0509232 8.08529 0.085802 8.18855 0.16326C14.3557 4.63585 20.5228 5.10196 26.6899 0.113446C26.7809 0.0365873 26.8947 -0.00537109 27.012 -0.00537109C27.1293 -0.00537109 27.243 0.0365873 27.334 0.113446C32.5384 4.55757 39.5072 5.09485 45.7977 0.145469C45.8995 0.0659452 46.0262 0.0287908 46.1529 0.0412987C46.2797 0.0538067 46.3974 0.115074 46.4829 0.213074L53.8664 8.89494C53.958 9.00021 54.0061 9.13866 54.0003 9.28044C53.9946 9.42222 53.9354 9.55596 53.8355 9.65283C52.0162 11.3498 50.8361 13.6623 50.5053 16.1785C50.2105 18.4413 50.4072 20.744 51.0809 22.9176C51.7661 25.3869 52.5781 27.8243 53.1366 30.3221C53.447 31.9527 53.6304 33.6067 53.6848 35.2679C53.8615 38.3321 53.4011 41.3999 52.3349 44.2629C50.7759 48.618 48.1138 52.1797 44.7973 55.2504C40.6173 59.143 35.8104 62.0109 30.7259 64.3913C29.7186 64.8645 28.7011 65.3057 27.7041 65.7932C27.5034 65.9141 27.2765 65.9801 27.0446 65.9851C26.8127 65.9901 26.5834 65.9338 26.3781 65.8217C23.8633 64.5585 21.2731 63.4413 18.7926 62.1034C14.5303 59.8665 10.6514 56.9165 7.31144 53.3717C4.11825 49.9132 1.80215 45.9317 0.801706 41.1993C0.304265 38.7444 0.154219 36.2272 0.356303 33.7272C0.616692 30.0659 1.71307 26.6145 2.85056 23.1738C3.55174 21.1064 3.79532 18.9015 3.56321 16.7229C3.25142 13.9795 2.37775 11.7806 0.161011 9.6635C0.0638544 9.56874 0.00623958 9.43827 0.000477678 9.29998C-0.00528423 9.16168 0.0412637 9.02653 0.130175 8.92341ZM11.0083 34.7164C10.9131 34.8163 10.8597 34.9512 10.8597 35.0918C10.8597 35.2323 10.9131 35.3672 11.0083 35.4672C13.9822 38.577 16.9184 41.7117 19.9403 44.7575C21.4376 46.2661 23.507 46.1024 24.9837 44.5689L42.9917 25.8673C43.0864 25.7686 43.1397 25.6349 43.1397 25.4955C43.1397 25.3561 43.0864 25.2223 42.9917 25.1236L38.6713 20.6368C38.5749 20.5369 38.4443 20.4807 38.3081 20.4807C38.1719 20.4807 38.0413 20.5369 37.9449 20.6368L22.6573 36.531C22.6095 36.5811 22.5527 36.6208 22.4901 36.6479C22.4274 36.675 22.3603 36.6889 22.2924 36.6889C22.2246 36.6889 22.1574 36.675 22.0948 36.6479C22.0321 36.6208 21.9753 36.5811 21.9275 36.531L15.9625 30.3292C15.9151 30.2793 15.8585 30.2396 15.7962 30.2126C15.7338 30.1855 15.6669 30.1716 15.5994 30.1716C15.5318 30.1716 15.4649 30.1855 15.4026 30.2126C15.3402 30.2396 15.2837 30.2793 15.2362 30.3292L11.0083 34.7164Z" fill="url(#paint0_linear_166_368)"/>
</g>
</g>
</g>
</g>
<defs>
<linearGradient id="paint0_linear_166_368" x1="4.68271" y1="8.47078" x2="48.4378" y2="55.7052" gradientUnits="userSpaceOnUse">
<stop stop-color="#6C6C6C"/>
<stop offset="0.494792" stop-color="#B9B9B9"/>
<stop offset="1" stop-color="#6C6C6C"/>
</linearGradient>
<clipPath id="clip0_166_368">
<rect width="54" height="66" fill="white"/>
</clipPath>
</defs>
</svg>
