<svg width="152" height="152" viewBox="0 0 152 152" fill="none" xmlns="http://www.w3.org/2000/svg">
<circle cx="76.0001" cy="76.0001" r="76.0001" fill="url(#paint0_linear_411_127)"/>
<path d="M64 48C65.62 48 67.51 48.03 69.67 48.09C71.89 48.09 73.99 48 75.97 47.82C78.01 47.64 79.72 47.31 81.1 46.83C82.48 46.29 83.17 45.45 83.17 44.31H83.8C83.8 46.47 83.11 48.12 81.73 49.26C80.35 50.4 78.67 51.24 76.69 51.78C74.77 52.26 72.73 52.56 70.57 52.68C68.47 52.74 66.64 52.77 65.08 52.77V72.12C65.44 71.7 65.77 71.34 66.07 71.04C66.43 70.68 66.85 70.41 67.33 70.23C67.87 69.99 68.53 69.81 69.31 69.69C70.15 69.57 71.23 69.51 72.55 69.51C75.49 69.51 77.74 69.87 79.3 70.59C80.92 71.31 82.12 72.3 82.9 73.56C83.68 74.82 84.13 76.26 84.25 77.88C84.43 79.5 84.52 81.21 84.52 83.01V97.5C84.52 99.72 84.46 101.67 84.34 103.35C84.22 105.03 83.77 106.44 82.99 107.58C82.21 108.72 81.01 109.59 79.39 110.19C77.77 110.73 75.46 111 72.46 111C70.48 111 68.89 110.7 67.69 110.1C66.49 109.5 65.59 108.78 64.99 107.94C64.39 107.1 64.06 106.23 64 105.33C63.94 104.37 64.06 103.56 64.36 102.9C64.72 102.18 65.23 101.7 65.89 101.46C66.55 101.22 67.3 101.37 68.14 101.91C69.16 102.57 69.7 103.2 69.76 103.8C69.88 104.34 69.76 104.88 69.4 105.42C69.1 105.96 68.71 106.47 68.23 106.95C67.81 107.43 67.57 107.88 67.51 108.3C67.51 108.66 67.84 108.99 68.5 109.29C69.22 109.53 70.54 109.74 72.46 109.92C73.6 109.98 74.47 109.74 75.07 109.2C75.73 108.6 76.21 107.76 76.51 106.68C76.87 105.6 77.05 104.31 77.05 102.81C77.11 101.25 77.14 99.48 77.14 97.5V83.01C77.14 81.39 77.11 79.83 77.05 78.33C76.99 76.83 76.81 75.51 76.51 74.37C76.21 73.17 75.73 72.21 75.07 71.49C74.47 70.77 73.63 70.41 72.55 70.41C70.57 70.47 68.95 70.77 67.69 71.31C66.49 71.79 65.26 72.96 64 74.82V48Z" fill="#FFDFB4"/>
<defs>
<linearGradient id="paint0_linear_411_127" x1="76.0001" y1="-8.02705" x2="76.0001" y2="152" gradientUnits="userSpaceOnUse">
<stop stop-color="#9497AB"/>
<stop offset="1" stop-color="#373945"/>
</linearGradient>
</defs>
</svg>
