<svg width="152" height="152" viewBox="0 0 152 152" fill="none" xmlns="http://www.w3.org/2000/svg">
<circle cx="76.0001" cy="76.0001" r="76.0001" fill="url(#paint0_linear_411_126)"/>
<path d="M58.09 94.35V90.66L73.39 48H81.67V109.92H83.47V111H72.04V109.92H74.29V49.08L59.35 90.66L75.64 90.57C78.1 90.57 80.23 90.57 82.03 90.57C83.83 90.57 85.33 90.45 86.53 90.21C87.73 89.97 88.6 89.61 89.14 89.13C89.74 88.59 90.04 87.87 90.04 86.97H90.76C90.82 88.83 90.37 90.27 89.41 91.29C88.51 92.31 87.31 93.06 85.81 93.54C84.37 93.96 82.75 94.2 80.95 94.26C79.15 94.32 77.38 94.35 75.64 94.35H58.09Z" fill="#FFDFB4"/>
<defs>
<linearGradient id="paint0_linear_411_126" x1="76.0001" y1="-8.02705" x2="76.0001" y2="152" gradientUnits="userSpaceOnUse">
<stop stop-color="#9497AB"/>
<stop offset="1" stop-color="#373945"/>
</linearGradient>
</defs>
</svg>
