<svg width="152" height="152" viewBox="0 0 152 152" fill="none" xmlns="http://www.w3.org/2000/svg">
<circle cx="76.0001" cy="76.0001" r="76.0001" fill="url(#paint0_linear_411_125)"/>
<path d="M72.84 70.86C73.98 70.86 74.94 70.53 75.72 69.87C76.56 69.21 77.22 68.34 77.7 67.26C78.24 66.12 78.6 64.83 78.78 63.39C78.96 61.95 79.05 60.45 79.05 58.89C79.05 57.63 79.02 56.4 78.96 55.2C78.96 54 78.81 52.95 78.51 52.05C78.27 51.09 77.82 50.31 77.16 49.71C76.56 49.11 75.69 48.81 74.55 48.81C72.63 48.99 71.31 49.23 70.59 49.53C69.93 49.83 69.6 50.19 69.6 50.61C69.66 50.97 69.9 51.42 70.32 51.96C70.8 52.44 71.19 52.95 71.49 53.49C71.85 54.03 71.97 54.63 71.85 55.29C71.79 55.89 71.25 56.49 70.23 57.09C69.39 57.63 68.64 57.78 67.98 57.54C67.32 57.3 66.81 56.85 66.45 56.19C66.15 55.47 66.03 54.66 66.09 53.76C66.15 52.8 66.48 51.9 67.08 51.06C67.68 50.22 68.58 49.5 69.78 48.9C70.98 48.3 72.57 48 74.55 48C77.07 48 79.02 48.42 80.4 49.26C81.84 50.1 82.86 51.12 83.46 52.32C84.12 53.46 84.48 54.66 84.54 55.92C84.66 57.18 84.72 58.17 84.72 58.89C84.84 67.17 81.63 71.34 75.09 71.4C76.77 71.34 78.36 71.67 79.86 72.39C81.42 73.05 82.77 74.16 83.91 75.72C85.11 77.22 86.04 79.23 86.7 81.75C87.36 84.21 87.69 87.24 87.69 90.84C87.69 93.36 87.54 95.85 87.24 98.31C86.94 100.71 86.31 102.84 85.35 104.7C84.45 106.56 83.13 108.09 81.39 109.29C79.65 110.43 77.34 111 74.46 111C72.54 111 70.95 110.7 69.69 110.1C68.49 109.5 67.59 108.78 66.99 107.94C66.39 107.1 66.06 106.23 66 105.33C65.94 104.37 66.06 103.56 66.36 102.9C66.72 102.18 67.23 101.7 67.89 101.46C68.55 101.22 69.3 101.37 70.14 101.91C71.16 102.51 71.7 103.14 71.76 103.8C71.88 104.4 71.76 104.97 71.4 105.51C71.1 106.05 70.71 106.59 70.23 107.13C69.81 107.61 69.57 108.06 69.51 108.48C69.51 108.84 69.84 109.17 70.5 109.47C71.22 109.77 72.54 110.01 74.46 110.19C75.6 110.19 76.5 109.71 77.16 108.75C77.88 107.79 78.42 106.47 78.78 104.79C79.14 103.05 79.35 101.01 79.41 98.67C79.53 96.27 79.59 93.66 79.59 90.84C79.53 84.12 78.96 79.32 77.88 76.44C76.86 73.56 75.18 72.12 72.84 72.12V70.86Z" fill="#FFDFB4"/>
<defs>
<linearGradient id="paint0_linear_411_125" x1="76.0001" y1="-8.02705" x2="76.0001" y2="152" gradientUnits="userSpaceOnUse">
<stop stop-color="#9497AB"/>
<stop offset="1" stop-color="#373945"/>
</linearGradient>
</defs>
</svg>
