<svg width="152" height="152" viewBox="0 0 152 152" fill="none" xmlns="http://www.w3.org/2000/svg">
<circle cx="76.0001" cy="76.0001" r="76.0001" fill="url(#paint0_linear_411_124)"/>
<path d="M82.02 110.91C81.18 111.09 80.28 111.03 79.32 110.73C78.42 110.43 77.55 109.95 76.71 109.29C75.69 108.51 74.64 108 73.56 107.76C72.66 107.58 71.64 107.7 70.5 108.12C69.42 108.48 68.37 109.44 67.35 111C66.33 110.94 65.91 109.62 66.09 107.04C66.33 104.46 67.02 100.95 68.16 96.51C69.3 92.07 70.83 86.85 72.75 80.85C74.73 74.85 76.95 68.4 79.41 61.5C80.31 59.04 80.82 57 80.94 55.38C81.12 53.76 80.97 52.47 80.49 51.51C80.01 50.55 79.26 49.89 78.24 49.53C77.28 49.11 76.11 48.9 74.73 48.9C72.75 49.14 71.4 49.41 70.68 49.71C70.02 50.01 69.69 50.37 69.69 50.79C69.69 51.21 69.93 51.66 70.41 52.14C70.89 52.56 71.28 53.04 71.58 53.58C71.94 54.12 72.09 54.69 72.03 55.29C71.97 55.89 71.43 56.49 70.41 57.09C69.57 57.63 68.82 57.78 68.16 57.54C67.5 57.3 66.99 56.85 66.63 56.19C66.33 55.47 66.21 54.66 66.27 53.76C66.33 52.8 66.66 51.9 67.26 51.06C67.86 50.22 68.76 49.5 69.96 48.9C71.16 48.3 72.75 48 74.73 48C77.61 48 79.89 48.69 81.57 50.07C83.25 51.39 84.45 53.04 85.17 55.02C85.89 57 86.19 59.1 86.07 61.32C86.01 63.54 85.65 65.49 84.99 67.17C82.83 72.93 80.64 78.06 78.42 82.56C76.26 87 74.31 90.93 72.57 94.35C70.83 97.77 69.45 100.74 68.43 103.26C67.47 105.78 67.11 108 67.35 109.92C68.25 108.48 69.21 107.58 70.23 107.22C71.31 106.8 72.33 106.65 73.29 106.77C74.37 106.95 75.45 107.37 76.53 108.03C77.49 108.69 78.42 109.23 79.32 109.65C80.28 110.01 81.18 110.13 82.02 110.01C83.1 109.77 83.76 109.5 84 109.2C84.24 108.84 84.24 108.48 84 108.12C83.82 107.7 83.52 107.28 83.1 106.86C82.68 106.44 82.35 105.99 82.11 105.51C81.87 104.97 81.81 104.46 81.93 103.98C82.05 103.44 82.56 102.87 83.46 102.27C84.6 101.55 85.53 101.52 86.25 102.18C87.03 102.78 87.42 103.65 87.42 104.79C87.48 105.93 87.09 107.13 86.25 108.39C85.41 109.59 84 110.43 82.02 110.91Z" fill="#FFDFB4"/>
<defs>
<linearGradient id="paint0_linear_411_124" x1="76.0001" y1="-8.02705" x2="76.0001" y2="152" gradientUnits="userSpaceOnUse">
<stop stop-color="#9497AB"/>
<stop offset="1" stop-color="#373945"/>
</linearGradient>
</defs>
</svg>
